<svg width="15" height="13" viewBox="0 0 15 13" fill="none" xmlns="http://www.w3.org/2000/svg">
    <path d="M7.52937 12.25V12.25L7.52327 12.25C7.49944 12.2502 7.47514 12.2454 7.4515 12.2352C7.428 12.2251 7.40483 12.2094 7.384 12.1878C7.38381 12.1876 7.38361 12.1874 7.38342 12.1872L1.86581 6.35553C1.86555 6.35525 1.86529 6.35497 1.86503 6.35469C1.2624 5.7115 0.920105 4.83797 0.920105 3.92251C0.920105 3.00723 1.26227 2.13386 1.86468 1.4907C2.47108 0.853052 3.28624 0.500366 4.13 0.500366C4.97421 0.500366 5.78979 0.853428 6.39629 1.49172C6.39635 1.49178 6.3964 1.49184 6.39646 1.4919L7.16334 2.30138L7.52632 2.68453L7.88929 2.30138L8.65618 1.4919C8.65633 1.49173 8.65649 1.49157 8.65665 1.4914C8.65665 1.49139 8.65666 1.49139 8.65666 1.49138C9.26313 0.853303 10.0786 0.500366 10.9226 0.500366C11.7664 0.500366 12.5816 0.853049 13.1879 1.4907C13.7904 2.13385 14.1325 3.00723 14.1325 3.92251C14.1325 4.83796 13.7902 5.71148 13.1876 6.35467C13.1874 6.35495 13.1871 6.35524 13.1868 6.35553L7.66922 12.1872C7.66902 12.1874 7.66883 12.1876 7.66863 12.1878C7.64781 12.2094 7.62463 12.2251 7.60114 12.2352C7.5775 12.2454 7.5532 12.2502 7.52937 12.25Z" fill="#F1726F" stroke="black" />
</svg>